<svg height="128" viewBox="0 0 128 128" width="128" xmlns="http://www.w3.org/2000/svg"><path d="m-7.362712-55.33152h242.233222v191.43051h-242.233222z" fill="none"/><g fill="#603"><g stroke-width=".205319"><path d="m36.592465 108.81906v-27.360498h-9.624329v14.259368l-12.832437-.09359v-14.165778h-13.79661048v-4.736611l72.80148648-.322647v-4.295867l-.872606-.219172c-7.620976-1.914163-14.182914-7.786037-14.182914-19.94031v-25.664875h7.699463v17.474502h-.877261c-.237141 0-.750723.319558-1.141289.71013l-.710141.710129.06343 4.13305.06343 4.133048.565436.485964c.311001.267278.875496.544128 1.254442.615218.640383.120138.456201.218215.782032 1.390192 1.223259 4.399782 4.847203 7.896806 8.741974 8.813572l1.077922.25373v5.700346 5.700343h2.669146v-5.703459-5.70346l1.404841-.361894c3.802956-.979663 7.25236-4.615054 8.310438-8.758523.269769-1.056454.3333-1.134267 1.047156-1.282583 2.064796-.428999 2.213585-.828825 2.133633-5.733713l-.06363-3.90474-.670539-.598675c-.423155-.377818-.896553-.598675-1.283239-.598675h-.61273l-.298285-17.474502h7.699464v25.664875c0 7.209363-1.896716 15.714298-13.663502 19.718364l-1.542941.373009v4.363976l47.945045.246386v4.812872h-11.88414v8.309329h-12.83244v-8.309329h-9.624332v24.924518h-12.83244v-24.924518h-9.624327v19.216908h-12.832448v-19.216908h-9.624321v27.360498z"/><path d="m109.63676 71.569927c-5.32019-1.002424-8.54746-4.031304-10.058622-9.440297-.451634-1.616552-.458889-1.837543-.458889-13.96169 0-12.124148.0068-12.345139.458889-13.961691 1.424602-5.099133 4.470642-8.158586 9.235862-9.276516 2.20665-.517684 7.39168-.512697 9.27391.0089 5.55163 1.538501 8.67286 5.682955 9.48854 12.599187.19545 1.657321.18428 1.986719-.0762 2.247218-.25032.250321-1.00284.301043-4.18249.281922-2.75886-.0166-3.94124-.09531-4.09905-.272878-.12198-.137257-.32692-1.014669-.45542-1.949805-.5629-4.096483-2.37779-5.797279-5.90178-5.53076-2.36798.17909-3.89659 1.222371-4.55544 3.109109-.3319.950422-.36392 2.071833-.36392 12.745295 0 13.033762.007 13.10316 1.39051 14.416189 1.18098 1.120571 1.91275 1.377446 3.94778 1.385794 1.51211.0064 1.9971-.07295 2.66915-.435586 1.99278-1.075315 2.80107-2.681326 2.93467-5.830979.12329-2.906648.17126-2.862552-3.11359-2.862552-1.67906 0-2.59237-.08162-2.75715-.246383-.16987-.169874-.24637-1.2091-.24637-3.3467 0-2.137598.0765-3.176823.24637-3.346698.35296-.35296 14.14257-.35296 14.49553 0 .35552.355531.35552 22.76339 0 23.118925-.27666.276658-3.7987.344256-4.21326.08086-.13784-.08758-.39544-.569718-.57244-1.07142-.41535-1.177212-.85707-1.842857-1.22294-1.842857-.16021 0-.82793.474255-1.48383 1.053912-.65588.579647-1.87817 1.382752-2.71618 1.784671-1.42454.683228-1.67164.734458-3.7984.787619-1.37637.0344-2.90289-.06145-3.86522-.242814z"/><path d="m37.446637 26.27908-9.887492 38.281622-9.649391-20.352699 10.352418-17.928923h-8.545351l-11.1495726 18.398861v-18.398861h-8.4787931v44.91353h8.4787931v-13.544384l3.0292676-4.439129 9.304549 17.983513h13.440224l2.82088-9.319961 11.501573.102761 2.561475 9.2172h7.819767l-4.571569-19.385345-6.020205-25.528185zm5.408672 9.50513 3.804617 17.920297-7.696955-.01504 3.892338-17.905261z"/><path d="m75.54164 62.207503c-2.520494-.35654-5.151871-2.410075-6.411705-5.003701-.384445-.791484-.758075-1.693142-.830278-2.003687l-.131271-.564628h8.748307c9.827025 0 9.04636-.155385 8.331466 1.658322-1.646985 4.178431-5.477168 6.511965-9.706519 5.913694z"/><path d="m86.384094 45.396006c-.727028 0-1.058708.115065-1.447411.503773-.482671.48267-.503777.615124-.503777 3.136679 0 2.809785.162154 3.351766 1.100279 3.750732.719967.306181 1.831197.0662 2.338417-.517559.428082-.49268.462418-.726688.462418-3.198084 0-2.557903-.02037-2.688425-.503776-3.171768-.388694-.388708-.719123-.503773-1.44615-.503773zm-.06518 1.058927c.106392-.0087.214444.02606.338353.104013.27428.172536.354144.618269.402273 2.24693.03298 1.117272.0087 2.23972-.05509 2.493802-.112037.449034-.873401.654201-1.203035.324571-.07527-.07528-.136596-1.172669-.136596-2.438663-.00001-1.849717.0645-2.354624.325822-2.571501.117789-.09776.221932-.150435.328334-.159152z"/><path d="m65.954946 45.396006v7.391184h1.213074v-2.976274l1.583998 2.976274h1.308302c-.307713-1.051445-1.156614-2.208143-1.515074-3.244452l.924847-.828345c.481584-.43081.512098-1.28608.254386-2.248182-.182145-.679962-1.103238-1.070285-2.527642-1.070205zm1.627868 1.026344c.861946 0 1.412377 1.394721.794506 2.012588-.13551.13551-.459586.246873-.719316.246873-.435532 0-.471187-.08889-.471187-1.130357 0-.978433.05296-1.129104.395997-1.129104z"/><path d="m71.977676 45.396006-.651644 3.541452c-.358305 1.947963-.651013 3.765036-.650392 3.849732h1.106545c.09942-.114673.146781-.458089.206762-.833358.126887-.793435.166383-.831594.797018-.770698.584776.05647.675116.149242.765689.78323.0451.315415.08972.711168.195492.820826h1.125342l-1.459942-7.391184zm.80954 1.959954c.04888-.03819.09292.146778.177955.606533.08351.451703.157625 1.121756.164172 1.488764.0097.546088-.06722.666684-.422331.666684-.400556.000001-.423126-.07473-.293242-.974964.0774-.536396.198188-1.206449.26943-1.488763.04355-.172409.07469-.275346.104016-.298254z"/></g><path d="m76.250975 45.375956c-.146199-.000624-.297596.0052-.454901.02005l.0039 7.391183c3.000972.18242 3.556844-1.133418 3.676786-2.997578.02697-.419276.05451-.837219 0-1.636637-.07478-1.097455-1.032626-2.767151-3.225648-2.777019zm.675456 1.501294c2.381511.414123 2.027454 4.766156.0068 4.620429v-1.748168c-.0049-1.033812.01106-1.839102-.0068-2.872261z" stroke-width=".641622"/><path d="m80.335049 45.396203v.630148.345148h1.223084v2.7201 2.849977h-1.223084v.261638.584475l1.817094.03083 1.817093-.03083v-.584475-.261638h-1.179232v-2.849977-2.7201h1.179232v-.345148-.630148c-1.222346-.0249-2.411123 0-3.634187 0z" stroke-width=".205319"/><path d="m67.847103 32.09708.05781-8.67001c-.109739-4.910219 5.014905-10.095346 9.625995-9.60056 1.886502.117694 3.220818.611265 4.800607 1.775774 1.959917 1.444711 3.538813 4.487442 3.538813 6.81975v1.005036l-4.003725-.000069c-3.729958-.000063-4.031794.02808-4.414357.410639-.22585.225851-.410643.595425-.410643.821275 0 .225851.184793.595425.410643.821277.383262.383261.684399.410638 4.517016.410638h4.106382v1.539892 1.539892h-3.8877c-2.13823 0-4.122105.08913-4.408625.198057-.679859.258484-.889444 1.079685-.447637 1.753969l.335357.511803h4.204298 4.204307v1.539892 1.539892h-3.785032c-2.08177 0-4.023171.09053-4.31423.201197-.786883.299174-1.080881 1.085137-.651188 1.740924l.341845.521708h4.204298 4.204307v3.387762 3.387764h-9.143179-9.143169z" stroke-width=".205319"/></g></svg>